{
    "asset" : {
        "generator" : "Khronos glTF Blender I/O v1.8.19",
        "version" : "2.0"
    },
    "scene" : 0,
    "scenes" : [
        {
            "name" : "Scene",
            "nodes" : [
                0
            ]
        }
    ],
    "nodes" : [
        {
            "mesh" : 0,
            "name" : "M_uBody_Atari_TShirt_Green.002",
            "rotation" : [
                0.707105278968811,
                -0.0013442628551274538,
                -0.0013442628551274538,
                0.7071057558059692
            ],
            "scale" : [
                0.12500004470348358,
                0.1250000298023224,
                0.12500004470348358
            ],
            "translation" : [
                0,
                1.8756449222564697,
                0
            ]
        }
    ],
    "materials" : [
        {
            "doubleSided" : true,
            "name" : "ArchiDAOBlack.002",
            "pbrMetallicRoughness" : {
                "baseColorTexture" : {
                    "index" : 0
                },
                "metallicFactor" : 0,
                "roughnessFactor" : 0.699999988079071
            }
        }
    ],
    "meshes" : [
        {
            "name" : "Mesh.002",
            "primitives" : [
                {
                    "attributes" : {
                        "POSITION" : 0,
                        "NORMAL" : 1,
                        "TEXCOORD_0" : 2
                    },
                    "indices" : 3,
                    "material" : 0
                }
            ]
        }
    ],
    "textures" : [
        {
            "sampler" : 0,
            "source" : 0
        }
    ],
    "images" : [
        {
            "bufferView" : 4,
            "mimeType" : "image/png",
            "name" : "black_ready"
        }
    ],
    "accessors" : [
        {
            "bufferView" : 0,
            "componentType" : 5126,
            "count" : 41394,
            "max" : [
                34.651763916015625,
                16.599716186523438,
                30.292577743530273
            ],
            "min" : [
                -34.65369415283203,
                -16.50135612487793,
                -26.652742385864258
            ],
            "type" : "VEC3"
        },
        {
            "bufferView" : 1,
            "componentType" : 5126,
            "count" : 41394,
            "type" : "VEC3"
        },
        {
            "bufferView" : 2,
            "componentType" : 5126,
            "count" : 41394,
            "type" : "VEC2"
        },
        {
            "bufferView" : 3,
            "componentType" : 5123,
            "count" : 216576,
            "type" : "SCALAR"
        }
    ],
    "bufferViews" : [
        {
            "buffer" : 0,
            "byteLength" : 496728,
            "byteOffset" : 0
        },
        {
            "buffer" : 0,
            "byteLength" : 496728,
            "byteOffset" : 496728
        },
        {
            "buffer" : 0,
            "byteLength" : 331152,
            "byteOffset" : 993456
        },
        {
            "buffer" : 0,
            "byteLength" : 433152,
            "byteOffset" : 1324608
        },
        {
            "buffer" : 0,
            "byteLength" : 27808,
            "byteOffset" : 1757760
        }
    ],
    "samplers" : [
        {
            "magFilter" : 9729,
            "minFilter" : 9987
        }
    ],
    "buffers" : [
        {
            "byteLength" : 1785568,
            "uri" : "data:application/octet-stream;base64,"
        }
    ]
}
