{
    "asset" : {
        "generator" : "Khronos glTF Blender I/O v1.8.19",
        "version" : "2.0"
    },
    "scene" : 0,
    "scenes" : [
        {
            "name" : "Scene",
            "nodes" : [
                0
            ]
        }
    ],
    "nodes" : [
        {
            "mesh" : 0,
            "name" : "BezierCurve",
            "rotation" : [
                0.7071068286895752,
                0,
                0,
                0.7071068286895752
            ],
            "scale" : [
                1.55447256565094,
                1.55447256565094,
                1.55447256565094
            ],
            "translation" : [
                -5.951971054077148,
                2.265150547027588,
                0.4410032033920288
            ]
        }
    ],
    "meshes" : [
        {
            "name" : "BezierCurve",
            "primitives" : [
                {
                    "attributes" : {
                        "POSITION" : 0,
                        "NORMAL" : 1,
                        "TEXCOORD_0" : 2
                    },
                    "indices" : 3
                }
            ]
        }
    ],
    "accessors" : [
        {
            "bufferView" : 0,
            "componentType" : 5126,
            "count" : 53363,
            "max" : [
                5.814823150634766,
                0.3595801591873169,
                1.2333284616470337
            ],
            "min" : [
                1.2505565881729126,
                -210.0067596435547,
                -2.2425060272216797
            ],
            "type" : "VEC3"
        },
        {
            "bufferView" : 1,
            "componentType" : 5126,
            "count" : 53363,
            "type" : "VEC3"
        },
        {
            "bufferView" : 2,
            "componentType" : 5126,
            "count" : 53363,
            "type" : "VEC2"
        },
        {
            "bufferView" : 3,
            "componentType" : 5123,
            "count" : 297216,
            "type" : "SCALAR"
        }
    ],
    "bufferViews" : [
        {
            "buffer" : 0,
            "byteLength" : 640356,
            "byteOffset" : 0
        },
        {
            "buffer" : 0,
            "byteLength" : 640356,
            "byteOffset" : 640356
        },
        {
            "buffer" : 0,
            "byteLength" : 426904,
            "byteOffset" : 1280712
        },
        {
            "buffer" : 0,
            "byteLength" : 594432,
            "byteOffset" : 1707616
        }
    ],
    "buffers" : [
        {
            "byteLength" : 2302048,
            "uri" : "data:application/octet-stream;base64,"
        }
    ]
}
