{
    "asset" : {
        "generator" : "Khronos glTF Blender I/O v1.8.19",
        "version" : "2.0"
    },
    "scene" : 0,
    "scenes" : [
        {
            "name" : "Scene",
            "nodes" : [
                0,
                1
            ]
        }
    ],
    "nodes" : [
        {
            "mesh" : 0,
            "name" : "Plane",
            "scale" : [
                10000,
                10000,
                10000
            ],
            "translation" : [
                0,
                -1.3229246139526367,
                0
            ]
        },
        {
            "mesh" : 1,
            "name" : "Torus",
            "rotation" : [
                -0.8127514719963074,
                -0.18227536976337433,
                -0.45682382583618164,
                -0.3122863471508026
            ],
            "scale" : [
                1.2606123685836792,
                1.2606123685836792,
                1.2606123685836792
            ],
            "translation" : [
                0.20702782273292542,
                2.3997726440429688,
                -1.4811291694641113
            ]
        }
    ],
    "materials" : [
        {
            "doubleSided" : true,
            "name" : "Material.002",
            "pbrMetallicRoughness" : {
                "baseColorFactor" : [
                    0.5082783699035645,
                    0.21954408288002014,
                    0.8000000715255737,
                    1
                ],
                "metallicFactor" : 0,
                "roughnessFactor" : 0.4000000059604645
            }
        }
    ],
    "meshes" : [
        {
            "name" : "Plane",
            "primitives" : [
                {
                    "attributes" : {
                        "POSITION" : 0,
                        "NORMAL" : 1,
                        "TEXCOORD_0" : 2
                    },
                    "indices" : 3
                }
            ]
        },
        {
            "name" : "Torus",
            "primitives" : [
                {
                    "attributes" : {
                        "POSITION" : 4,
                        "NORMAL" : 5
                    },
                    "indices" : 6,
                    "material" : 0
                }
            ]
        }
    ],
    "accessors" : [
        {
            "bufferView" : 0,
            "componentType" : 5126,
            "count" : 144,
            "max" : [
                1,
                0,
                1
            ],
            "min" : [
                -1,
                0,
                -1
            ],
            "type" : "VEC3"
        },
        {
            "bufferView" : 1,
            "componentType" : 5126,
            "count" : 144,
            "type" : "VEC3"
        },
        {
            "bufferView" : 2,
            "componentType" : 5126,
            "count" : 144,
            "type" : "VEC2"
        },
        {
            "bufferView" : 3,
            "componentType" : 5123,
            "count" : 726,
            "type" : "SCALAR"
        },
        {
            "bufferView" : 4,
            "componentType" : 5126,
            "count" : 15718,
            "max" : [
                1.2046303749084473,
                3.0180892944335938,
                2.5433173179626465
            ],
            "min" : [
                -2.773526906967163,
                -0.21994590759277344,
                -1.249809741973877
            ],
            "type" : "VEC3"
        },
        {
            "bufferView" : 5,
            "componentType" : 5126,
            "count" : 15718,
            "type" : "VEC3"
        },
        {
            "bufferView" : 6,
            "componentType" : 5123,
            "count" : 40440,
            "type" : "SCALAR"
        }
    ],
    "bufferViews" : [
        {
            "buffer" : 0,
            "byteLength" : 1728,
            "byteOffset" : 0
        },
        {
            "buffer" : 0,
            "byteLength" : 1728,
            "byteOffset" : 1728
        },
        {
            "buffer" : 0,
            "byteLength" : 1152,
            "byteOffset" : 3456
        },
        {
            "buffer" : 0,
            "byteLength" : 1452,
            "byteOffset" : 4608
        },
        {
            "buffer" : 0,
            "byteLength" : 188616,
            "byteOffset" : 6060
        },
        {
            "buffer" : 0,
            "byteLength" : 188616,
            "byteOffset" : 194676
        },
        {
            "buffer" : 0,
            "byteLength" : 80880,
            "byteOffset" : 383292
        }
    ],
    "buffers" : [
        {
            "byteLength" : 464172,
            "uri" : "data:application/octet-stream;base64,"
        }
    ]
}
